<svg width="800" height="490" viewBox="0 0 800 490" fill="none" xmlns="http://www.w3.org/2000/svg">
<path d="M0 244.835H612.089C679.698 244.835 734.507 299.644 734.507 367.253C734.507 434.863 679.698 489.671 612.089 489.671H0V244.835Z" fill="#B7DF80"/>
<path d="M800 0H187.911C120.302 0 65.4935 54.8083 65.4935 122.418C65.4935 190.027 120.302 244.835 187.911 244.835H800V0Z" fill="#B7DF80"/>
<path d="M320.961 304.904C325.873 279.592 330.596 261.458 335.13 250.502C339.664 239.546 347.031 229.724 357.233 221.035C363.656 215.746 374.424 209.323 389.538 201.767C404.651 193.834 416.553 186.278 425.243 179.1C433.933 171.922 438.278 163.799 438.278 154.732C438.278 135.843 427.132 126.398 404.84 126.398C392.371 126.398 381.603 130.365 372.535 138.298C363.845 145.854 358.178 157.377 355.533 172.866H247.284C254.463 127.531 272.787 93.908 302.258 71.9962C332.107 49.7065 370.079 38.5616 416.175 38.5616C432.422 38.5616 447.913 40.2617 462.648 43.6618C477.384 46.6842 491.93 51.7843 506.288 58.9624C520.646 66.1404 531.981 76.9074 540.293 91.2635C548.983 105.242 553.328 122.242 553.328 142.265C553.328 187.6 531.603 220.846 488.152 242.002C456.036 258.247 437.145 268.636 431.477 273.17C423.543 278.837 418.253 289.415 415.608 304.904H320.961ZM283.556 451.109L304.525 342.872H413.341L392.371 451.109H283.556Z" fill="#141414"/>
</svg>