<svg xmlns="http://www.w3.org/2000/svg" viewBox="0 0 160.4 48" fill="none" role="img" aria-label="Skepsis">
  <g transform="translate(8,7) scale(0.53)">
    <path d="M22 13 H11 V51 H22" stroke="#1C2530" stroke-width="5" stroke-linecap="square" stroke-linejoin="miter"/>
    <path d="M42 13 H53 V51 H42" stroke="#1C2530" stroke-width="5" stroke-linecap="square" stroke-linejoin="miter"/>
    <path d="M27 48 C27 38 37 38 37 32 C37 26 27 26 27 16" stroke="#E85C28" stroke-width="4.5" stroke-linecap="round" stroke-linejoin="round"/>
  </g>
  <g transform="translate(60.0,34.0) scale(0.02700,-0.02700)" fill="#1C2530"><path transform="translate(0,0)" d="M332 -16Q187 -16 107.0 45.5Q27 107 23 221H165Q172 157 210.5 129.0Q249 101 326 101Q387 101 426.0 123.5Q465 146 465 193Q465 210 460.5 223.5Q456 237 442.0 247.5Q428 258 418.0 264.5Q408 271 381.0 278.5Q354 286 340.0 289.5Q326 293 288 302Q242 313 212.5 321.0Q183 329 147.5 346.0Q112 363 91.5 383.5Q71 404 57.0 437.5Q43 471 43 514Q43 617 118.5 672.5Q194 728 317 728Q439 728 512.0 670.0Q585 612 593 505H454Q448 557 410.5 585.0Q373 613 316 613Q257 613 222.0 590.0Q187 567 187 529Q187 488 221.5 469.0Q256 450 343 431Q395 420 428.0 410.5Q461 401 499.5 383.5Q538 366 559.5 345.0Q581 324 595.5 289.5Q610 255 610 210Q610 104 533.0 44.0Q456 -16 332 -16Z"/><path transform="translate(642,0)" d="M382 0 238 234 179 173V0H44V715H179V319L361 513H524L335 318L547 0Z"/><path transform="translate(1188,0)" d="M285 -15Q161 -15 90.0 61.5Q19 138 19 257Q19 372 90.0 449.5Q161 527 272 527Q393 527 459.0 443.0Q525 359 525 218H153Q161 157 194.0 123.5Q227 90 284 90Q359 90 383 153H517Q502 81 441.0 33.0Q380 -15 285 -15ZM274 422Q175 422 155 312H383Q380 361 350.0 391.5Q320 422 274 422Z"/><path transform="translate(1732,0)" d="M44 -168V513H175V449H178Q235 527 329 527Q430 527 491.0 452.0Q552 377 552 256Q552 132 491.0 58.5Q430 -15 330.0 -15.0Q230 -15 182 58H180V-168ZM301 98Q353 98 383.5 139.0Q414 180 414 252Q414 329 385.0 373.0Q356 417 296 417Q235 417 206.0 371.5Q177 326 177 252Q177 181 209.0 139.5Q241 98 301 98Z"/><path transform="translate(2303,0)" d="M252 -15Q142 -15 80.0 33.5Q18 82 12 166H138Q151 81 250 81Q295 81 319.5 97.0Q344 113 344 140Q344 150 340.5 158.0Q337 166 328.5 172.5Q320 179 313.5 183.0Q307 187 291.0 191.0Q275 195 266.5 197.0Q258 199 237.5 202.5Q217 206 209 208Q167 216 140.5 224.5Q114 233 85.0 249.5Q56 266 41.5 294.5Q27 323 27 363Q27 443 85.5 485.0Q144 527 236 527Q335 527 391.5 481.5Q448 436 456 357H333Q325 432 234 432Q193 432 169.5 417.0Q146 402 146 375Q146 366 149.5 358.5Q153 351 161.5 345.5Q170 340 178.0 336.5Q186 333 201.0 329.5Q216 326 227.0 323.5Q238 321 257.0 317.5Q276 314 287 312Q319 305 339.5 299.5Q360 294 387.0 281.5Q414 269 429.5 253.5Q445 238 456.5 211.5Q468 185 468 150Q468 74 408.5 29.5Q349 -15 252 -15Z"/><path transform="translate(2788,0)" d="M44 0V513H180V0ZM44 593V715H180V593Z"/><path transform="translate(3012,0)" d="M252 -15Q142 -15 80.0 33.5Q18 82 12 166H138Q151 81 250 81Q295 81 319.5 97.0Q344 113 344 140Q344 150 340.5 158.0Q337 166 328.5 172.5Q320 179 313.5 183.0Q307 187 291.0 191.0Q275 195 266.5 197.0Q258 199 237.5 202.5Q217 206 209 208Q167 216 140.5 224.5Q114 233 85.0 249.5Q56 266 41.5 294.5Q27 323 27 363Q27 443 85.5 485.0Q144 527 236 527Q335 527 391.5 481.5Q448 436 456 357H333Q325 432 234 432Q193 432 169.5 417.0Q146 402 146 375Q146 366 149.5 358.5Q153 351 161.5 345.5Q170 340 178.0 336.5Q186 333 201.0 329.5Q216 326 227.0 323.5Q238 321 257.0 317.5Q276 314 287 312Q319 305 339.5 299.5Q360 294 387.0 281.5Q414 269 429.5 253.5Q445 238 456.5 211.5Q468 185 468 150Q468 74 408.5 29.5Q349 -15 252 -15Z"/></g>
</svg>
