<?xml version="1.0" encoding="utf-8" ?>
<svg baseProfile="full" height="400" version="1.1" width="800" xmlns="http://www.w3.org/2000/svg" xmlns:ev="http://www.w3.org/2001/xml-events" xmlns:xlink="http://www.w3.org/1999/xlink"><defs><filter height="140%" id="glow" width="140%" x="-20%" y="-20%" /><linearGradient id="binaryGrad" x1="0" x2="0" y1="0" y2="1"><stop offset="0%" stop-color="#3b82f6" stop-opacity="0.3" /><stop offset="100%" stop-color="#3b82f6" stop-opacity="0.05" /></linearGradient><linearGradient id="skepsisGrad" x1="0" x2="0" y1="0" y2="1"><stop offset="0%" stop-color="#bef264" stop-opacity="0.3" /><stop offset="100%" stop-color="#bef264" stop-opacity="0.05" /></linearGradient><linearGradient id="lossGrad" x1="0" x2="0" y1="0" y2="1"><stop offset="0%" stop-color="#ef4444" stop-opacity="0.3" /><stop offset="100%" stop-color="#ef4444" stop-opacity="0.05" /></linearGradient><style type="text/css"><![CDATA[text { font-family: Inter, system-ui, sans-serif; }]]></style></defs><rect fill="#09090b" height="400" width="800" x="0" y="0" /><g transform="translate(20, 20)"><rect fill="#18181b" height="360" rx="12" stroke="#27272a" width="370" x="0" y="0" /><text fill="#ffffff" font-size="18px" font-weight="bold" text-anchor="middle" x="185" y="40">Binary Market</text><line stroke="#27272a" stroke-width="1" x1="40" x2="330" y1="100.0" y2="100.0" /><line stroke="#27272a" stroke-width="1" x1="40" x2="330" y1="137.5" y2="137.5" /><line stroke="#27272a" stroke-width="1" x1="40" x2="330" y1="175.0" y2="175.0" /><line stroke="#27272a" stroke-width="1" x1="40" x2="330" y1="212.5" y2="212.5" /><line stroke="#27272a" stroke-width="1" x1="40" x2="330" y1="250.0" y2="250.0" /><text fill="#a1a1aa" font-size="10px" text-anchor="middle" x="40" y="270">$90k</text><text fill="#a1a1aa" font-size="10px" text-anchor="middle" x="185.0" y="270">$100k</text><text fill="#a1a1aa" font-size="10px" text-anchor="middle" x="330" y="270">$110k</text><path d="M 40,250 L 185.0,250 L 185.0,100 L 330,100" fill="none" stroke="#ef4444" stroke-width="3" /><path d="M 185.0,250 L 185.0,100 L 330,100 L 330,250 Z" fill="url(#binaryGrad)" /><line stroke="#a1a1aa" stroke-dasharray="4,4" stroke-width="1" x1="185.0" x2="185.0" y1="100" y2="260" /><circle cx="182.09999999999997" cy="250" fill="#ef4444" r="6" stroke="#18181b" stroke-width="2" /><text fill="#ef4444" font-size="12px" font-weight="bold" text-anchor="end" x="182.09999999999997" y="235">You are here ($99.8k)</text><rect fill="#ef4444" fill-opacity="0.2" height="36" rx="18" stroke="#ef4444" width="100" x="135" y="300" /><text fill="#ef4444" font-size="16px" font-weight="bold" text-anchor="middle" x="185" y="324">LOSE</text><text fill="#a1a1aa" font-size="12px" text-anchor="middle" x="185" y="280">Missed by $200</text></g><g transform="translate(410, 20)"><rect fill="#18181b" height="360" rx="12" stroke="#27272a" width="370" x="0" y="0" /><text fill="#ffffff" font-size="18px" font-weight="bold" text-anchor="middle" x="185" y="40">Skepsis Market</text><line stroke="#27272a" stroke-width="1" x1="40" x2="330" y1="100.0" y2="100.0" /><line stroke="#27272a" stroke-width="1" x1="40" x2="330" y1="137.5" y2="137.5" /><line stroke="#27272a" stroke-width="1" x1="40" x2="330" y1="175.0" y2="175.0" /><line stroke="#27272a" stroke-width="1" x1="40" x2="330" y1="212.5" y2="212.5" /><line stroke="#27272a" stroke-width="1" x1="40" x2="330" y1="250.0" y2="250.0" /><text fill="#a1a1aa" font-size="10px" text-anchor="middle" x="40" y="270">$90k</text><text fill="#a1a1aa" font-size="10px" text-anchor="middle" x="185.0" y="270">$100k</text><text fill="#a1a1aa" font-size="10px" text-anchor="middle" x="330" y="270">$110k</text><rect fill="#bef264" height="150" opacity="0.3" width="6.25" x="112.5" y="100" /><rect fill="#bef264" height="150" opacity="0.3" width="6.25" x="119.75" y="100" /><rect fill="#bef264" height="150" opacity="0.3" width="6.25" x="127.0" y="100" /><rect fill="#bef264" height="150" opacity="0.3" width="6.25" x="134.25" y="100" /><rect fill="#bef264" height="150" opacity="0.3" width="6.25" x="141.5" y="100" /><rect fill="#bef264" height="150" opacity="0.3" width="6.25" x="148.75" y="100" /><rect fill="#bef264" height="150" opacity="0.3" width="6.25" x="156.0" y="100" /><rect fill="#bef264" height="150" opacity="0.3" width="6.25" x="163.25" y="100" /><rect fill="#bef264" height="150" opacity="0.3" width="6.25" x="170.5" y="100" /><rect fill="#bef264" height="150" opacity="0.3" width="6.25" x="177.75" y="100" /><rect fill="#bef264" height="150" opacity="0.3" width="6.25" x="185.0" y="100" /><rect fill="#bef264" height="150" opacity="0.3" width="6.25" x="192.25" y="100" /><rect fill="#bef264" height="150" opacity="0.3" width="6.25" x="199.5" y="100" /><rect fill="#bef264" height="150" opacity="0.3" width="6.25" x="206.75" y="100" /><rect fill="#bef264" height="150" opacity="0.3" width="6.25" x="214.0" y="100" /><rect fill="#bef264" height="150" opacity="0.3" width="6.25" x="221.25" y="100" /><rect fill="#bef264" height="150" opacity="0.3" width="6.25" x="228.5" y="100" /><rect fill="#bef264" height="150" opacity="0.3" width="6.25" x="235.75" y="100" /><rect fill="#bef264" height="150" opacity="0.3" width="6.25" x="243.0" y="100" /><rect fill="#bef264" height="150" opacity="0.3" width="6.25" x="250.25" y="100" /><path d="M 40,250 L 112.5,250 L 112.5,100 L 257.5,100 L 257.5,250 L 330,250" fill="none" stroke="#bef264" stroke-width="2" /><text fill="#bef264" font-size="10px" text-anchor="middle" x="112.5" y="265">$95k</text><text fill="#bef264" font-size="10px" text-anchor="middle" x="257.5" y="265">$105k</text><circle cx="182.09999999999997" cy="100" fill="#bef264" r="6" stroke="#18181b" stroke-width="2" /><text fill="#bef264" font-size="12px" font-weight="bold" text-anchor="middle" x="182.09999999999997" y="85">You are here ($99.8k)</text><rect fill="#bef264" fill-opacity="0.2" height="36" rx="18" stroke="#bef264" width="100" x="135" y="300" /><text fill="#000000" font-size="16px" font-weight="bold" text-anchor="middle" x="185" y="324">WIN</text><text fill="#a1a1aa" font-size="12px" text-anchor="middle" x="185" y="280">Inside Range ($95k-$105k)</text></g></svg>