<svg xmlns="http://www.w3.org/2000/svg" viewBox="0 0 800 400"><defs><filter id="glow" x="-50%" y="-50%" width="200%" height="200%"><feGaussianBlur stdDeviation="3" result="blur" /><feComposite in="SourceGraphic" in2="blur" operator="over" /></filter></defs><style>text { font-family: "Inter", system-ui, -apple-system, BlinkMacSystemFont, "Segoe UI", Roboto, sans-serif; }</style><rect width="100%" height="100%" fill="#0F1115" /><g id="shotgun-panel"><rect x="20" y="20" width="370" height="360" rx="12" fill="#1A1D24" stroke="#333" stroke-width="1" /><text x="205" y="60" text-anchor="middle" fill="white" font-size="16" font-weight="bold">Binary Market (Shotgun)</text><circle cx="205" cy="200" r="120" fill="none" stroke="#3B82F6" stroke-width="2" stroke-opacity="0.1" /><circle cx="205" cy="200" r="90" fill="none" stroke="#3B82F6" stroke-width="2" stroke-opacity="0.2" /><circle cx="205" cy="200" r="60" fill="none" stroke="#3B82F6" stroke-width="2" stroke-opacity="0.3" /><circle cx="205" cy="200" r="30" fill="#3B82F6" fill-opacity="0.1" stroke="#3B82F6" stroke-width="2" /><line x1="65" y1="200" x2="345" y2="200" stroke="#3B82F6" stroke-width="1" stroke-opacity="0.3" /><line x1="205" y1="60" x2="205" y2="340" stroke="#3B82F6" stroke-width="1" stroke-opacity="0.3" /><circle cx="203.3988242625238" cy="198.07864240033274" r="3" fill="#60A5FA" opacity="0.8" /><circle cx="201.50415361501612" cy="222.0456207511156" r="3" fill="#60A5FA" opacity="0.8" /><circle cx="199.2547173278902" cy="132.5743840235637" r="3" fill="#60A5FA" opacity="0.8" /><circle cx="211.774013049938" cy="194.55056393844956" r="3" fill="#60A5FA" opacity="0.8" /><circle cx="202.37170675977174" cy="201.40385807892952" r="3" fill="#60A5FA" opacity="0.8" /><circle cx="214.89387736148956" cy="249.55755101794406" r="3" fill="#60A5FA" opacity="0.8" /><circle cx="224.60803001838678" cy="203.29988971086894" r="3" fill="#60A5FA" opacity="0.8" /><circle cx="172.93714058427565" cy="155.9365773128351" r="3" fill="#60A5FA" opacity="0.8" /><circle cx="215.8814465843493" cy="257.9131641526292" r="3" fill="#60A5FA" opacity="0.8" /><circle cx="205.2370714741368" cy="199.39490836257428" r="3" fill="#60A5FA" opacity="0.8" /><circle cx="228.9864363357376" cy="134.43600820376415" r="3" fill="#60A5FA" opacity="0.8" /><circle cx="196.64833878203115" cy="213.11443874199324" r="3" fill="#60A5FA" opacity="0.8" /><circle cx="237.45041146572635" cy="191.05966031401388" r="3" fill="#60A5FA" opacity="0.8" /><circle cx="213.07541416094617" cy="205.3224300471792" r="3" fill="#60A5FA" opacity="0.8" /><circle cx="239.71281545406447" cy="150.60494303321204" r="3" fill="#60A5FA" opacity="0.8" /><text x="205" y="320" text-anchor="middle" fill="#94A3B8" font-size="14">Broad Coverage</text><rect x="155" y="335" width="100" height="30" rx="15" fill="#1E3A8A" stroke="#3B82F6" stroke-width="1" /><text x="205" y="355" text-anchor="middle" fill="#60A5FA" font-size="14" font-weight="bold">2x Payout</text></g><g id="sniper-panel"><rect x="410" y="20" width="370" height="360" rx="12" fill="#1A1D24" stroke="#333" stroke-width="1" /><text x="595" y="60" text-anchor="middle" fill="white" font-size="16" font-weight="bold">Skepsis (Sniper)</text><circle cx="595" cy="200" r="120" fill="none" stroke="#A3E635" stroke-width="2" stroke-opacity="0.1" /><circle cx="595" cy="200" r="90" fill="none" stroke="#A3E635" stroke-width="2" stroke-opacity="0.2" /><circle cx="595" cy="200" r="60" fill="none" stroke="#A3E635" stroke-width="2" stroke-opacity="0.3" /><circle cx="595" cy="200" r="30" fill="#A3E635" fill-opacity="0.1" stroke="#A3E635" stroke-width="2" /><line x1="455" y1="200" x2="735" y2="200" stroke="#A3E635" stroke-width="1" stroke-opacity="0.3" /><line x1="595" y1="60" x2="595" y2="340" stroke="#A3E635" stroke-width="1" stroke-opacity="0.3" /><circle cx="595" cy="200" r="8" fill="#A3E635" filter="url(#glow)" /><circle cx="595" cy="200" r="5" fill="#FFFFFF" /><text x="595" y="320" text-anchor="middle" fill="#94A3B8" font-size="14">Precision Strike</text><rect x="545" y="335" width="100" height="30" rx="15" fill="#365314" stroke="#A3E635" stroke-width="1" /><text x="595" y="355" text-anchor="middle" fill="#A3E635" font-size="14" font-weight="bold" filter="url(#glow)">10x Payout</text></g></svg>