<svg xmlns="http://www.w3.org/2000/svg" viewBox="0 0 800 400"><defs><filter id="glow" x="-20%" y="-20%" width="140%" height="140%"><feGaussianBlur stdDeviation="4" result="blur" /><feComposite in="SourceGraphic" in2="blur" operator="over" /></filter><linearGradient id="binaryGrad" x1="0" x2="0" y1="0" y2="1"><stop offset="0%" stop-color="#3b82f6" stop-opacity="0.3"/><stop offset="100%" stop-color="#3b82f6" stop-opacity="0.05"/></linearGradient></defs><style>text { font-family: Inter, system-ui, sans-serif; }</style><rect width="800" height="400" fill="#09090b" /><line x1="50" y1="50" x2="750" y2="50" stroke="#27272a" stroke-width="1" /><line x1="50" y1="100" x2="750" y2="100" stroke="#27272a" stroke-width="1" /><line x1="50" y1="150" x2="750" y2="150" stroke="#27272a" stroke-width="1" /><line x1="50" y1="200" x2="750" y2="200" stroke="#27272a" stroke-width="1" /><line x1="50" y1="250" x2="750" y2="250" stroke="#27272a" stroke-width="1" /><line x1="50" y1="300" x2="750" y2="300" stroke="#27272a" stroke-width="1" /><line x1="50" y1="350" x2="750" y2="350" stroke="#27272a" stroke-width="1" /><line x1="100" y1="50" x2="100" y2="350" stroke="#27272a" stroke-width="1" /><line x1="150" y1="50" x2="150" y2="350" stroke="#27272a" stroke-width="1" /><line x1="200" y1="50" x2="200" y2="350" stroke="#27272a" stroke-width="1" /><line x1="250" y1="50" x2="250" y2="350" stroke="#27272a" stroke-width="1" /><line x1="300" y1="50" x2="300" y2="350" stroke="#27272a" stroke-width="1" /><line x1="350" y1="50" x2="350" y2="350" stroke="#27272a" stroke-width="1" /><line x1="400" y1="50" x2="400" y2="350" stroke="#27272a" stroke-width="1" /><line x1="450" y1="50" x2="450" y2="350" stroke="#27272a" stroke-width="1" /><line x1="500" y1="50" x2="500" y2="350" stroke="#27272a" stroke-width="1" /><line x1="550" y1="50" x2="550" y2="350" stroke="#27272a" stroke-width="1" /><line x1="600" y1="50" x2="600" y2="350" stroke="#27272a" stroke-width="1" /><line x1="650" y1="50" x2="650" y2="350" stroke="#27272a" stroke-width="1" /><line x1="700" y1="50" x2="700" y2="350" stroke="#27272a" stroke-width="1" /><line x1="750" y1="50" x2="750" y2="350" stroke="#27272a" stroke-width="1" /><rect x="50" y="50" width="700" height="150" fill="url(#binaryGrad)" /><line x1="50" y1="200" x2="750" y2="200" stroke="#3b82f6" stroke-width="2" stroke-dasharray="4,4" /><text x="60" y="190" fill="#3b82f6" font-size="14" font-weight="bold">BINARY THRESHOLD (> $100k)</text><rect x="650" y="70" width="80" height="30" rx="4" fill="#3b82f6" /><text x="690" y="90" text-anchor="middle" fill="#ffffff" font-weight="bold">2x Payout</text><rect x="50" y="120" width="700" height="40" fill="#bef264" fill-opacity="0.15" stroke="#bef264" stroke-width="1" /><text x="60" y="110" fill="#bef264" font-size="14" font-weight="bold">SKEPSIS TARGET ($102k - $104k)</text><rect x="650" y="125" width="80" height="30" rx="4" fill="#bef264" filter="url(#glow)" /><rect x="650" y="125" width="80" height="30" rx="4" fill="#bef264" /><text x="690" y="145" text-anchor="middle" fill="#000000" font-weight="bold">10x Payout</text><polyline points="50,293 60,296 70,296 80,288 90,279 100,284 110,289 120,287 130,281 140,276 150,272 160,274 170,277 180,282 190,285 200,289 210,292 220,287 230,284 240,275 250,270 260,265 270,260 280,262 290,266 300,263 310,256 320,248 330,251 340,249 350,253 360,245 370,238 380,229 390,229 400,231 410,235 420,227 430,216 440,217 450,206 460,196 470,183 480,181 490,185 500,184 510,171 520,169 530,170 540,156 550,146 560,147 570,132 580,124 590,122 600,127 610,119 620,104 630,107 640,104 650,105 660,102 670,91 680,84 690,78 700,65 710,59 720,50 730,50 740,50" fill="none" stroke="#ffffff" stroke-width="3" /><circle cx="740" cy="50" r="6" fill="#bef264" stroke="#ffffff" stroke-width="2" /></svg>