<svg xmlns="http://www.w3.org/2000/svg" viewBox="0 0 800 400"><defs><filter id="glow" x="-20%" y="-20%" width="140%" height="140%"><feGaussianBlur stdDeviation="4" result="blur" /><feComposite in="SourceGraphic" in2="blur" operator="over" /></filter><linearGradient id="binaryGrad" x1="0" x2="0" y1="0" y2="1"><stop offset="0%" stop-color="#3b82f6" stop-opacity="0.3"/><stop offset="100%" stop-color="#3b82f6" stop-opacity="0.05"/></linearGradient><linearGradient id="skepsisGrad" x1="0" x2="0" y1="0" y2="1"><stop offset="0%" stop-color="#bef264" stop-opacity="0.3"/><stop offset="100%" stop-color="#bef264" stop-opacity="0.05"/></linearGradient></defs><style>text { font-family: Inter, system-ui, sans-serif; }</style><rect width="800" height="400" fill="#09090b" /><g transform="translate(20, 20)"><rect width="370" height="360" rx="12" fill="#18181b" stroke="#27272a" /><text x="185" y="40" text-anchor="middle" fill="#ffffff" font-size="18" font-weight="bold">Binary Market</text><line x1="40" y1="120" x2="330" y2="120" stroke="#27272a" stroke-width="1" /><line x1="40" y1="160" x2="330" y2="160" stroke="#27272a" stroke-width="1" /><line x1="40" y1="200" x2="330" y2="200" stroke="#27272a" stroke-width="1" /><line x1="40" y1="240" x2="330" y2="240" stroke="#27272a" stroke-width="1" /><line x1="40" y1="280" x2="330" y2="280" stroke="#27272a" stroke-width="1" /><rect x="40" y="80" width="290" height="120" fill="url(#binaryGrad)" /><line x1="40" y1="200" x2="330" y2="200" stroke="#3b82f6" stroke-width="2" stroke-dasharray="4,4" /><text x="50" y="190" fill="#3b82f6" font-size="12" font-weight="bold">THRESHOLD > $97k</text><polyline points="40,280 100,270 160,220 220,180 280,160 330,140" fill="none" stroke="#ffffff" stroke-width="3" /><circle cx="330" cy="140" r="5" fill="#ffffff" /><text x="30" y="285" text-anchor="end" fill="#a1a1aa" font-size="10">$95k</text><text x="30" y="205" text-anchor="end" fill="#a1a1aa" font-size="10">$97k</text><text x="30" y="145" text-anchor="end" fill="#a1a1aa" font-size="10">$98.5k</text><rect x="135" y="300" width="100" height="36" rx="18" fill="#3b82f6" fill-opacity="0.2" stroke="#3b82f6" /><text x="185" y="324" text-anchor="middle" fill="#3b82f6" font-size="16" font-weight="bold">2x Payout</text></g><g transform="translate(410, 20)"><rect width="370" height="360" rx="12" fill="#18181b" stroke="#27272a" /><text x="185" y="40" text-anchor="middle" fill="#ffffff" font-size="18" font-weight="bold">Skepsis</text><line x1="40" y1="120" x2="330" y2="120" stroke="#27272a" stroke-width="1" /><line x1="40" y1="160" x2="330" y2="160" stroke="#27272a" stroke-width="1" /><line x1="40" y1="200" x2="330" y2="200" stroke="#27272a" stroke-width="1" /><line x1="40" y1="240" x2="330" y2="240" stroke="#27272a" stroke-width="1" /><line x1="40" y1="280" x2="330" y2="280" stroke="#27272a" stroke-width="1" /><rect x="40" y="120" width="290" height="40" fill="#bef264" fill-opacity="0.2" stroke="#bef264" stroke-width="2" /><text x="50" y="110" fill="#bef264" font-size="12" font-weight="bold">TARGET $98k - $99k</text><polyline points="40,280 100,270 160,220 220,180 280,160 330,140" fill="none" stroke="#ffffff" stroke-width="3" /><circle cx="330" cy="140" r="5" fill="#bef264" stroke="#ffffff" stroke-width="2" /><text x="30" y="285" text-anchor="end" fill="#a1a1aa" font-size="10">$95k</text><text x="30" y="165" text-anchor="end" fill="#a1a1aa" font-size="10">$98k</text><text x="30" y="125" text-anchor="end" fill="#a1a1aa" font-size="10">$99k</text><rect x="135" y="300" width="100" height="36" rx="18" fill="#bef264" filter="url(#glow)" /><rect x="135" y="300" width="100" height="36" rx="18" fill="#bef264" /><text x="185" y="324" text-anchor="middle" fill="#000000" font-size="16" font-weight="bold">10x Payout</text></g></svg>