<svg xmlns="http://www.w3.org/2000/svg" viewBox="0 0 900 300" width="900" role="img" aria-label="One vault receives LP deposits, funds every market, and recycles capital on resolution.">
  <defs>
    <marker id="ar" viewBox="0 0 10 10" refX="8" refY="5" markerWidth="6.5" markerHeight="6.5" orient="auto-start-reverse"><path d="M0 0 L10 5 L0 10 z" fill="#97a0ac"/></marker>
    <marker id="arb" viewBox="0 0 10 10" refX="8" refY="5" markerWidth="6.5" markerHeight="6.5" orient="auto-start-reverse"><path d="M0 0 L10 5 L0 10 z" fill="#fb6a30"/></marker>
  </defs>
  <rect width="900" height="300" rx="6" fill="#1b2027"/>
  <path d="M132 150 H350" fill="none" stroke="#6a7585" stroke-width="1.4" marker-end="url(#ar)"/>
  <path d="M550 150 C630 150 660 45 744 45" fill="none" stroke="#6a7585" stroke-width="1.4" opacity="0.85" marker-end="url(#ar)"/>
  <path d="M550 150 C630 150 660 91 744 91" fill="none" stroke="#6a7585" stroke-width="1.4" opacity="0.85" marker-end="url(#ar)"/>
  <path d="M550 150 H744" fill="none" stroke="#6a7585" stroke-width="1.4" opacity="0.85" marker-end="url(#ar)"/>
  <path d="M550 150 C630 150 660 183 744 183" fill="none" stroke="#6a7585" stroke-width="1.4" opacity="0.85" marker-end="url(#ar)"/>
  <path d="M550 150 C630 150 660 229 744 229" fill="none" stroke="#6a7585" stroke-width="1.4" opacity="0.85" marker-end="url(#ar)"/>
  <path d="M808 246 C700 300 470 300 452 208" fill="none" stroke="#fb6a30" stroke-width="1.4" opacity="0.6" stroke-dasharray="5 5" marker-end="url(#arb)"/>
  <text x="612" y="292" text-anchor="middle" font-family="ui-monospace,monospace" font-size="11" fill="#fb6a30" opacity="0.9" letter-spacing="0.06em">recycles on resolve</text>
  <rect x="36" y="126" width="96" height="48" rx="4" fill="#232932" stroke="#4a5462"/>
  <text x="84" y="147" text-anchor="middle" font-family="ui-monospace,monospace" font-size="14" font-weight="600" fill="#e8ecf1">LP</text>
  <text x="84" y="163" text-anchor="middle" font-family="ui-monospace,monospace" font-size="10" fill="#6f7884" letter-spacing="0.1em">USDC</text>
  <rect x="350" y="92" width="200" height="116" rx="6" fill="#232932" stroke="#4a5462"/>
  <rect x="422" y="118" width="56" height="4" rx="1" fill="#fb6a30" opacity="0.85"/>
  <rect x="408" y="125" width="84" height="4" rx="1" fill="#fb6a30" opacity="0.67"/>
  <rect x="415" y="132" width="70" height="4" rx="1" fill="#fb6a30" opacity="0.49"/>
  <text x="450" y="168" text-anchor="middle" font-family="ui-monospace,monospace" font-size="20" font-weight="600" fill="#e8ecf1" letter-spacing="0.08em">VAULT</text>
  <text x="450" y="188" text-anchor="middle" font-family="ui-monospace,monospace" font-size="11" fill="#6f7884" letter-spacing="0.14em">ERC-4626</text>
  <text x="804" y="16" text-anchor="middle" font-family="ui-monospace,monospace" font-size="9.5" fill="#6f7884" letter-spacing="0.16em">EVERY MARKET</text>
  <g font-family="ui-monospace,monospace" font-size="12" fill="#e8ecf1" letter-spacing="0.05em" text-anchor="middle">
    <rect x="744" y="28" width="120" height="34" rx="4" fill="#232932" stroke="#4a5462"/><text x="804" y="49">BTC</text>
    <rect x="744" y="74" width="120" height="34" rx="4" fill="#232932" stroke="#4a5462"/><text x="804" y="95">CPI</text>
    <rect x="744" y="120" width="120" height="34" rx="4" fill="#232932" stroke="#4a5462"/><text x="804" y="141">ETH/BTC</text>
    <rect x="744" y="166" width="120" height="34" rx="4" fill="#232932" stroke="#4a5462"/><text x="804" y="187">stETH</text>
    <rect x="744" y="212" width="120" height="34" rx="4" fill="#232932" stroke="#4a5462"/><text x="804" y="233">FED</text>
  </g>
</svg>
